Coordinates
version=1
nRows=15
nColumns=27
inDegrees=yes

Units are S.I. units (second, meters, Newtons, ...)
If the header above contains a line with 'inDegrees', this indicates whether rotational values are in degrees (yes) or radians (no).

endheader
time	pelvis_rotation	pelvis_tilt	pelvis_list	pelvis_tx	pelvis_ty	pelvis_tz	hip_flexion_r	hip_adduction_r	hip_rotation_r	knee_angle_r	knee_rotation_r	knee_adduction_r	knee_angle_r_beta	ankle_angle_r	subtalar_angle_r	mtp_angle_r	hip_flexion_l	hip_adduction_l	hip_rotation_l	knee_angle_l	knee_rotation_l	knee_adduction_l	knee_angle_l_beta	ankle_angle_l	subtalar_angle_l	mtp_angle_l
      6.13500000	      9.56455556	    -44.65345390	      9.21238382	     -0.10444272	      0.63742921	     -1.16167524	    114.95548843	    -41.40420870	      6.90178610	     76.41716802	      0.00000000	      0.00000000	      1.33373119	      2.12482114	      0.00000000	      0.00000000	    107.62511366	    -25.21957075	     -1.22642202	     67.94673024	      0.00000000	      0.00000000	      1.18589416	     -5.96852269	      0.00000000	      0.00000000
      6.14000000	      9.48688653	    -44.57164283	      9.19163376	     -0.10386315	      0.63779868	     -1.16179297	    114.77847578	    -41.36819039	      6.87743448	     76.36392844	      0.00000000	      0.00000000	      1.33280198	      2.13239262	      0.00000000	      0.00000000	    107.44673079	    -25.27717367	     -1.28466017	     67.92867715	      0.00000000	      0.00000000	      1.18557907	     -5.93902780	      0.00000000	      0.00000000
      6.14500000	      9.50718762	    -44.50461171	      9.18291543	     -0.10325662	      0.63817240	     -1.16196670	    114.60531472	    -41.44003858	      6.80940546	     76.31192904	      0.00000000	      0.00000000	      1.33189442	      2.13059131	      0.00000000	      0.00000000	    107.31284200	    -25.23191432	     -1.28382753	     67.90984313	      0.00000000	      0.00000000	      1.18525036	     -5.89280911	      0.00000000	      0.00000000
      6.15000000	      9.44102222	    -44.45898071	      9.15545997	     -0.10265542	      0.63853929	     -1.16210344	    114.45227807	    -41.41063349	      6.77400864	     76.26281573	      0.00000000	      0.00000000	      1.33103723	      2.14123304	      0.00000000	      0.00000000	    107.18392992	    -25.28506730	     -1.32565297	     67.90040089	      0.00000000	      0.00000000	      1.18508556	     -5.85744202	      0.00000000	      0.00000000
      6.15500000	      9.42266479	    -44.37399902	      9.14977361	     -0.10202188	      0.63894016	     -1.16228320	    114.26742533	    -41.43956359	      6.73668679	     76.20579875	      0.00000000	      0.00000000	      1.33004210	      2.13960448	      0.00000000	      0.00000000	    107.00936117	    -25.28222297	     -1.36464973	     67.87986414	      0.00000000	      0.00000000	      1.18472713	     -5.82257369	      0.00000000	      0.00000000
      6.16000000	      9.34366121	    -44.32128300	      9.11700912	     -0.10137794	      0.63939797	     -1.16244129	    114.08065249	    -41.40128806	      6.68609479	     76.13529282	      0.00000000	      0.00000000	      1.32881154	      2.15145801	      0.00000000	      0.00000000	    106.85415074	    -25.34514753	     -1.41912219	     67.85711887	      0.00000000	      0.00000000	      1.18433015	     -5.79332464	      0.00000000	      0.00000000
      6.16500000	      9.39854250	    -44.21568918	      9.13025632	     -0.10069099	      0.63983064	     -1.16266150	    113.87367448	    -41.51557021	      6.62142682	     76.08334080	      0.00000000	      0.00000000	      1.32790480	      2.16918664	      0.00000000	      0.00000000	    106.67053373	    -25.27754858	     -1.44702097	     67.83081507	      0.00000000	      0.00000000	      1.18387106	     -5.76667076	      0.00000000	      0.00000000
      6.17000000	      9.32361288	    -44.20229293	      9.11422308	     -0.10004858	      0.64030640	     -1.16281781	    113.73705035	    -41.46166394	      6.59627583	     76.00792185	      0.00000000	      0.00000000	      1.32658849	      2.16129600	      0.00000000	      0.00000000	    106.54434980	    -25.34242276	     -1.51116822	     67.80541174	      0.00000000	      0.00000000	      1.18342769	     -5.72209682	      0.00000000	      0.00000000
      6.17500000	      9.34058088	    -44.13786133	      9.13843836	     -0.09937790	      0.64082335	     -1.16301342	    113.56469403	    -41.50805993	      6.56140759	     75.93465487	      0.00000000	      0.00000000	      1.32530974	      2.17293731	      0.00000000	      0.00000000	    106.36935371	    -25.32815878	     -1.58315263	     67.76355553	      0.00000000	      0.00000000	      1.18269716	     -5.69650731	      0.00000000	      0.00000000
      6.18000000	      9.36447186	    -44.08888917	      9.14175494	     -0.09867059	      0.64133133	     -1.16322057	    113.38891365	    -41.57839415	      6.49212698	     75.86151444	      0.00000000	      0.00000000	      1.32403320	      2.16495237	      0.00000000	      0.00000000	    106.22295820	    -25.29290474	     -1.61738132	     67.72903985	      0.00000000	      0.00000000	      1.18209474	     -5.63702451	      0.00000000	      0.00000000
      6.18500000	      9.30686306	    -44.05022009	      9.12245025	     -0.09799664	      0.64189819	     -1.16339595	    113.20012936	    -41.55442331	      6.43445850	     75.77133430	      0.00000000	      0.00000000	      1.32245926	      2.17006295	      0.00000000	      0.00000000	    106.06311664	    -25.34138578	     -1.68725164	     67.68641027	      0.00000000	      0.00000000	      1.18135072	     -5.61099267	      0.00000000	      0.00000000
      6.19000000	      9.27433095	    -44.01156301	      9.12232006	     -0.09730504	      0.64248763	     -1.16357870	    113.02539208	    -41.55003407	      6.38683812	     75.67826043	      0.00000000	      0.00000000	      1.32083482	      2.16017168	      0.00000000	      0.00000000	    105.89700063	    -25.37481497	     -1.77169086	     67.63780023	      0.00000000	      0.00000000	      1.18050231	     -5.56275792	      0.00000000	      0.00000000
      6.19500000	      9.32965851	    -43.94635337	      9.13925612	     -0.09658527	      0.64305185	     -1.16378321	    112.82416691	    -41.65417658	      6.30419821	     75.59846369	      0.00000000	      0.00000000	      1.31944210	      2.16983767	      0.00000000	      0.00000000	    105.72930569	    -25.31626176	     -1.81294449	     67.58826226	      0.00000000	      0.00000000	      1.17963771	     -5.53835520	      0.00000000	      0.00000000
      6.20000000	      9.27014359	    -43.90599116	      9.11857364	     -0.09587165	      0.64366484	     -1.16395896	    112.62495453	    -41.63313902	      6.23885908	     75.49916200	      0.00000000	      0.00000000	      1.31770896	      2.16914670	      0.00000000	      0.00000000	    105.55648632	    -25.36965386	     -1.89504619	     67.53918619	      0.00000000	      0.00000000	      1.17878117	     -5.49722685	      0.00000000	      0.00000000
      6.20500000	      9.30698559	    -43.87781418	      9.13760307	     -0.09515234	      0.64427986	     -1.16415145	    112.45362807	    -41.70188228	      6.16446561	     75.40819025	      0.00000000	      0.00000000	      1.31612120	      2.17453976	      0.00000000	      0.00000000	    105.40934442	    -25.34148435	     -1.95870966	     67.47980014	      0.00000000	      0.00000000	      1.17774469	     -5.46337816	      0.00000000	      0.00000000
